<svg id="Layer_1" data-name="Layer 1" xmlns="http://www.w3.org/2000/svg" xmlns:xlink="http://www.w3.org/1999/xlink" viewBox="0 0 100 100"><defs><style>.cls-1,.cls-2{fill:none;}.cls-2{clip-rule:evenodd;}.cls-3{clip-path:url(#clip-path);}.cls-4{clip-path:url(#clip-path-2);}.cls-5{fill:#0077b5;}.cls-6{clip-path:url(#clip-path-3);}.cls-7{fill:#fff;}</style><clipPath id="clip-path" transform="translate(7.14 7.14)"><circle class="cls-1" cx="42.86" cy="42.86" r="42.86"/></clipPath><clipPath id="clip-path-2" transform="translate(7.14 7.14)"><rect class="cls-1" x="-482.14" y="-954.64" width="4666.67" height="6095.83"/></clipPath><clipPath id="clip-path-3" transform="translate(7.14 7.14)"><path class="cls-2" d="M65.31,47.95V64.68H55.6V49.07c0-3.92-1.41-6.6-4.92-6.6a5.32,5.32,0,0,0-5,3.55,6.63,6.63,0,0,0-.32,2.37v16.3H35.66s.13-26.44,0-29.18h9.71v4.13a9.64,9.64,0,0,1,8.75-4.82C60.52,34.81,65.31,39,65.31,47.95ZM30.93,26.47c0,2.8-2.11,5-5.5,5h-.06a5,5,0,0,1-5.37-5c0-2.86,2.17-5,5.49-5A5,5,0,0,1,30.93,26.47Zm-.64,9V64.68H20.57V35.5Z"/></clipPath></defs><title>logo_linkein</title><g class="cls-3"><g class="cls-4"><rect class="cls-5" width="100" height="100"/></g></g><g class="cls-6"><g class="cls-4"><rect class="cls-7" x="20" y="21.43" width="59.6" height="57.54"/></g></g></svg>