<svg xmlns="http://www.w3.org/2000/svg" viewBox="0 0 1253.42 201.02"><defs><style>.cls-1{fill:#882609;}.cls-2{fill:#d7ab80;}.cls-3{fill:#57351c;stroke:#d7ab80;stroke-miterlimit:10;}</style></defs><title>logo_dodge</title><g id="text"><path class="cls-1" d="M27.85,83.68v59.1a51.76,51.76,0,0,1-1.34,12.67,14.94,14.94,0,0,1-5.42,8.38,37.86,37.86,0,0,1-7.54,4.35,44.44,44.44,0,0,1-12.17,3.09L0,162.32a39.12,39.12,0,0,0,9.39-2.58,13,13,0,0,0,5.17-3.84,11.66,11.66,0,0,0,2.14-5.55,58.6,58.6,0,0,0,.44-7.69v-59Z"/><path class="cls-2" d="M44.87,88.09a6.67,6.67,0,0,1,6.8-6.8,7.18,7.18,0,0,1,5.1,2,6.7,6.7,0,0,1,0,9.7,7.17,7.17,0,0,1-5.1,2,6.67,6.67,0,0,1-6.8-6.81Zm1.64,18L56.59,105v64.65H46.5Z"/><path class="cls-2" d="M74.86,117.71a85.34,85.34,0,0,0-.76-10.33l9.45-1.26,1.39,7.94a70,70,0,0,1,6.68-4.41,45.35,45.35,0,0,1,7.06-3.28,22.18,22.18,0,0,1,7.69-1.39q6.3,0,10,2.21t5.42,7.5A104.7,104.7,0,0,1,132.51,108a24.24,24.24,0,0,1,11.66-3,23.26,23.26,0,0,1,7.94,1.2,11.12,11.12,0,0,1,5.29,4,18.27,18.27,0,0,1,2.9,7.31,61,61,0,0,1,.88,11.34v40.83H151.1v-39.7q0-3.78-.13-6.74a17,17,0,0,0-.88-5,6.34,6.34,0,0,0-2.46-3.21,8.73,8.73,0,0,0-4.85-1.13,18.05,18.05,0,0,0-5.48.82,30.55,30.55,0,0,0-5.36,2.33,67.92,67.92,0,0,0-8.57,6.17v46.5H113.3v-39.7q0-3.78-.13-6.74a17,17,0,0,0-.88-5,6.34,6.34,0,0,0-2.46-3.21A8.73,8.73,0,0,0,105,113.8a18.58,18.58,0,0,0-6.81,1.39,44.84,44.84,0,0,0-6.68,3.28q-3.15,1.89-6.55,4.41v46.75H74.86Z"/><path class="cls-1" d="M209.83,83.68h27.6a63.1,63.1,0,0,1,18.46,2.52A37.34,37.34,0,0,1,270.07,94a34.93,34.93,0,0,1,9.14,13.36,51.29,51.29,0,0,1,3.21,19,48,48,0,0,1-3.53,19.22,37.82,37.82,0,0,1-9.58,13.48A38.76,38.76,0,0,1,255.07,167a58.34,58.34,0,0,1-17.64,2.58h-27.6Zm10.71,76.24h17a46.57,46.57,0,0,0,13-1.76,28,28,0,0,0,10.68-5.73,27,27,0,0,0,7.23-10.4,41.14,41.14,0,0,0,2.64-15.63,41.41,41.41,0,0,0-2.39-14.81A26.91,26.91,0,0,0,262,101.33a27.24,27.24,0,0,0-10.56-6,46.27,46.27,0,0,0-13.89-2h-17Z"/><path class="cls-2" d="M294.39,138.13q0-9.58,3-15.94A29.23,29.23,0,0,1,305.1,112a28.2,28.2,0,0,1,10-5.42A36,36,0,0,1,325.26,105a38.13,38.13,0,0,1,9.89,1.45A26.38,26.38,0,0,1,345,111.6a28.93,28.93,0,0,1,7.56,10q3,6.24,3,15.82,0,10-3.09,16.51a29.49,29.49,0,0,1-7.75,10.4,28.08,28.08,0,0,1-10.08,5.42,36.29,36.29,0,0,1-10.08,1.58,36.7,36.7,0,0,1-10.08-1.51,26.59,26.59,0,0,1-9.77-5.23,28.29,28.29,0,0,1-7.44-10.14Q294.39,148,294.39,138.13Zm10.71.13q0,12.23,5.48,18.21t14.81,6q9.2,0,14.37-5.92t5.17-17.77q0-12.6-5.48-18.78t-14.93-6.17q-9.45,0-14.43,6.11T305.1,138.25Z"/><path class="cls-2" d="M410,164.59a39.79,39.79,0,0,1-11.53,5.67,20.8,20.8,0,0,1-6.24,1q-11.85,0-18.59-8.38t-6.74-24.51q0-9.58,3.09-16a29.72,29.72,0,0,1,7.75-10.27,29,29,0,0,1,10-5.48A34,34,0,0,1,397.6,105a38.92,38.92,0,0,1,4.79.32,66,66,0,0,1,7.44,1.58V75.24l10.08-1.13v84.06q0,1.77.06,3.72t.25,3.84q.19,1.89.44,3.91l-9.7,1Zm-.13-48.9a53.3,53.3,0,0,0-7.06-1.58,41.86,41.86,0,0,0-5.17-.32,20.1,20.1,0,0,0-9.07,1.89,17.16,17.16,0,0,0-6.24,5.23,22.35,22.35,0,0,0-3.59,7.69,36.58,36.58,0,0,0-1.13,9.26,42,42,0,0,0,.95,8.82,27.44,27.44,0,0,0,3,7.94,18,18,0,0,0,4.91,5.67,11.32,11.32,0,0,0,6.93,2.14,17.73,17.73,0,0,0,5.73-1,38.42,38.42,0,0,0,5.48-2.33,43.27,43.27,0,0,0,5.29-3.34Z"/><path class="cls-2" d="M487.83,175.68a40.65,40.65,0,0,1-1,9.07,19,19,0,0,1-3.84,7.88,19.51,19.51,0,0,1-7.94,5.54q-5.1,2.08-13.42,2.08a89.41,89.41,0,0,1-9.2-.64,56.69,56.69,0,0,1-7.43-1.47,45.79,45.79,0,0,1-6.43-2.24L441.2,187a54.74,54.74,0,0,0,10,3.28,42.56,42.56,0,0,0,9.14,1.14,30,30,0,0,0,7.69-.88,12.66,12.66,0,0,0,5.48-2.95,12.48,12.48,0,0,0,3.28-5.46,28.29,28.29,0,0,0,1.07-8.4v-9.16a54.58,54.58,0,0,1-5.48,3.21,38.57,38.57,0,0,1-6,2.46,20.8,20.8,0,0,1-6.24,1q-11.72,0-18.53-8.25t-6.8-24.64q0-9.45,3-15.82a30,30,0,0,1,7.5-10.27,28,28,0,0,1,10-5.61,34.49,34.49,0,0,1,10.33-1.7,60.31,60.31,0,0,1,11.78,1.07q5.35,1.07,10.52,1.7Zm-26.59-13.23a17.19,17.19,0,0,0,5.67-1,44,44,0,0,0,5.61-2.39,42.57,42.57,0,0,0,5.36-3.28v-40.2l-3.53-.88-4-.57a35,35,0,0,0-4.79-.32,20.1,20.1,0,0,0-9.07,1.89,17.41,17.41,0,0,0-6.24,5.17,21.64,21.64,0,0,0-3.59,7.69,37.33,37.33,0,0,0-1.13,9.33,42,42,0,0,0,.95,8.82,27.44,27.44,0,0,0,3,7.94,18,18,0,0,0,4.91,5.67A11.32,11.32,0,0,0,461.24,162.45Z"/><path class="cls-2" d="M552.86,168.12q-2.9.88-6,1.51t-6.8,1.13a58,58,0,0,1-7.75.5,37.65,37.65,0,0,1-11.72-1.76,24.11,24.11,0,0,1-9.45-5.67,27,27,0,0,1-6.36-10.14,44,44,0,0,1-2.33-15.31,42.14,42.14,0,0,1,2.27-14.43A30,30,0,0,1,511,113.49a25.82,25.82,0,0,1,9.33-6.36A31.1,31.1,0,0,1,531.94,105a22.67,22.67,0,0,1,10.71,2.39,21.55,21.55,0,0,1,7.5,6.49,28.74,28.74,0,0,1,4.41,9.58A45,45,0,0,1,556,135l-1.89,5.55H513.41a31.09,31.09,0,0,0,1,7.81,19.09,19.09,0,0,0,3.47,7.06,18.15,18.15,0,0,0,6.43,5.1,22.29,22.29,0,0,0,9.89,2,50,50,0,0,0,6.93-.44q3.15-.44,5.48-1a38,38,0,0,0,4.35-1.32Zm-7.31-35.66q0-.88-.38-3.91a23.83,23.83,0,0,0-1.76-6.3,16.4,16.4,0,0,0-4.28-5.86,11.13,11.13,0,0,0-7.69-2.58,15.72,15.72,0,0,0-8.7,2.21,18.43,18.43,0,0,0-5.42,5.23,19.19,19.19,0,0,0-2.77,6.17,22.82,22.82,0,0,0-.76,5Z"/><path class="cls-1" d="M659.09,95.78q-3.15-1-6.68-1.83t-7.75-1.39a66.74,66.74,0,0,0-8.89-.57,24,24,0,0,0-12.85,3.28,27.42,27.42,0,0,0-8.63,8.38,36,36,0,0,0-4.85,11.41,53.33,53.33,0,0,0-1.51,12.48,43.08,43.08,0,0,0,2.21,14.18,33,33,0,0,0,6,10.84,26.59,26.59,0,0,0,8.95,6.87,25.06,25.06,0,0,0,10.77,2.39,76.38,76.38,0,0,0,9.7-.57q4.41-.57,7.56-1.2a52.13,52.13,0,0,0,6.55-1.76l2.14,8.95a69.48,69.48,0,0,1-7.56,2q-3.53.76-8.19,1.39a76.69,76.69,0,0,1-10.21.63A43.29,43.29,0,0,1,618.45,168,33.88,33.88,0,0,1,606,158.86a39.39,39.39,0,0,1-7.5-13.86A58.24,58.24,0,0,1,596,127.41a56.85,56.85,0,0,1,3-19.34A40.36,40.36,0,0,1,607.3,94a34.33,34.33,0,0,1,12.6-8.57,43,43,0,0,1,16-2.9,81,81,0,0,1,9.89.57,84.22,84.22,0,0,1,8.44,1.45q3.84.88,7.12,1.89Z"/><path class="cls-2" d="M668.67,138.13q0-9.58,3-15.94A29.23,29.23,0,0,1,679.38,112a28.2,28.2,0,0,1,10-5.42A36,36,0,0,1,699.55,105a38.13,38.13,0,0,1,9.89,1.45,26.38,26.38,0,0,1,9.89,5.17,28.93,28.93,0,0,1,7.56,10q3,6.24,3,15.82,0,10-3.09,16.51a29.49,29.49,0,0,1-7.75,10.4A28.08,28.08,0,0,1,709,169.69a36.29,36.29,0,0,1-10.08,1.58,36.7,36.7,0,0,1-10.08-1.51,26.59,26.59,0,0,1-9.77-5.23,28.29,28.29,0,0,1-7.44-10.14Q668.67,148,668.67,138.13Zm10.71.13q0,12.23,5.48,18.21t14.81,6q9.2,0,14.37-5.92t5.17-17.77q0-12.6-5.48-18.78t-14.93-6.17q-9.45,0-14.43,6.11T679.38,138.25Z"/><path class="cls-2" d="M744.66,117.71a85.34,85.34,0,0,0-.76-10.33l9.45-1.26,1.39,7.94a70,70,0,0,1,6.68-4.41,45.34,45.34,0,0,1,7.06-3.28,22.2,22.2,0,0,1,7.69-1.39q6.3,0,10,2.21t5.42,7.5A104.77,104.77,0,0,1,802.32,108,24.24,24.24,0,0,1,814,105a23.27,23.27,0,0,1,7.94,1.2,11.13,11.13,0,0,1,5.29,4,18.28,18.28,0,0,1,2.9,7.31A60.84,60.84,0,0,1,831,128.8v40.83H820.91v-39.7q0-3.78-.13-6.74a17,17,0,0,0-.88-5,6.35,6.35,0,0,0-2.46-3.21,8.73,8.73,0,0,0-4.85-1.13,18,18,0,0,0-5.48.82,30.54,30.54,0,0,0-5.36,2.33,68,68,0,0,0-8.57,6.17v46.5H783.1v-39.7q0-3.78-.13-6.74a17,17,0,0,0-.88-5,6.32,6.32,0,0,0-2.46-3.21,8.73,8.73,0,0,0-4.85-1.13,18.59,18.59,0,0,0-6.8,1.39,44.89,44.89,0,0,0-6.68,3.28q-3.15,1.89-6.55,4.41v46.75H744.66Z"/><path class="cls-2" d="M895.64,168.12q-2.9.88-6,1.51t-6.81,1.13a58,58,0,0,1-7.75.5,37.65,37.65,0,0,1-11.72-1.76,24.11,24.11,0,0,1-9.45-5.67,27,27,0,0,1-6.36-10.14,44,44,0,0,1-2.33-15.31,42.14,42.14,0,0,1,2.27-14.43,30,30,0,0,1,6.24-10.46,25.83,25.83,0,0,1,9.33-6.36A31.11,31.11,0,0,1,874.72,105a22.66,22.66,0,0,1,10.71,2.39,21.55,21.55,0,0,1,7.5,6.49,28.72,28.72,0,0,1,4.41,9.58A45,45,0,0,1,898.79,135l-1.89,5.55H856.19a31.12,31.12,0,0,0,1,7.81,19.11,19.11,0,0,0,3.47,7.06,18.16,18.16,0,0,0,6.43,5.1,22.29,22.29,0,0,0,9.89,2,50,50,0,0,0,6.93-.44q3.15-.44,5.48-1a37.93,37.93,0,0,0,4.35-1.32Zm-7.31-35.66q0-.88-.38-3.91a23.84,23.84,0,0,0-1.77-6.3,16.4,16.4,0,0,0-4.28-5.86,11.13,11.13,0,0,0-7.69-2.58,15.72,15.72,0,0,0-8.7,2.21,18.43,18.43,0,0,0-5.42,5.23,19.21,19.21,0,0,0-2.77,6.17,22.88,22.88,0,0,0-.76,5Z"/><path class="cls-2" d="M952.22,164.59a39.82,39.82,0,0,1-11.53,5.67,20.8,20.8,0,0,1-6.24,1q-11.85,0-18.59-8.38t-6.74-24.51q0-9.58,3.09-16A29.72,29.72,0,0,1,920,112.1a29,29,0,0,1,10-5.48,34,34,0,0,1,9.89-1.64,38.91,38.91,0,0,1,4.79.32,65.93,65.93,0,0,1,7.44,1.58V75.24l10.08-1.13v84.06q0,1.77.06,3.72t.25,3.84q.19,1.89.44,3.91l-9.7,1Zm-.13-48.9a53.28,53.28,0,0,0-7.06-1.58,41.86,41.86,0,0,0-5.17-.32,20.1,20.1,0,0,0-9.07,1.89,17.17,17.17,0,0,0-6.24,5.23,22.36,22.36,0,0,0-3.59,7.69,36.61,36.61,0,0,0-1.13,9.26,42,42,0,0,0,.94,8.82,27.46,27.46,0,0,0,3,7.94,18,18,0,0,0,4.91,5.67,11.32,11.32,0,0,0,6.93,2.14,17.73,17.73,0,0,0,5.73-1,38.42,38.42,0,0,0,5.48-2.33,43.21,43.21,0,0,0,5.29-3.34Z"/><path class="cls-2" d="M972.26,106.24H983l11.85,28.61q1.76,4.16,3.21,8.32l2.58,7.44q1.39,3.91,2.39,7.56h.13q1.13-3.65,2.52-7.56,1.14-3.28,2.65-7.44t3.15-8.32l11-28.61H1033l-30,75.61a28,28,0,0,1-4.6,8.07,47.66,47.66,0,0,1-5.48,5.67,41.66,41.66,0,0,1-6.55,4.54l-4.92-8.7a23.3,23.3,0,0,0,4.92-3.15,28.93,28.93,0,0,0,4-4.1,20.27,20.27,0,0,0,3.28-5.86L997.59,168Z"/></g><g id="Mic"><g id="mic_head" data-name="mic head"><path class="cls-3" d="M1248.37,68.45s-30.11-7.77-43.61-24.19c-18.69-22.72-19.06-39.58-19.06-39.58s12.71-5.12,24.55-4a46.12,46.12,0,0,1,28.22,13.93c5.79,6,12.06,15,13.56,23.82C1255.33,57.82,1248.37,68.45,1248.37,68.45Z"/><path class="cls-3" d="M1237,78.71c-9.12-2-28.15-10.21-40.31-23.82-14.37-16.08-21.26-37.75-21.26-37.75-4.92,5.07-5.47,11.17-5.86,17.59-1.46,24.16,22.75,48.79,45.81,49.11C1222.5,83.94,1232,85.38,1237,78.71Z"/></g><g id="handle"><path class="cls-3" d="M1161.15,58.55S1169.9,73.82,1174,78c4.29,4.38,20.16,13.93,20.16,13.93s-24.66,20.17-48,40.31c-23,19.87-44.72,39.74-52.41,35.18-6.81-4-8.06-9.53-8.06-9.53-.89-3.9.19-7.67,1.47-9.16,17.59-20.52,31-38.15,43.61-52.77C1150.91,72.56,1161.15,58.55,1161.15,58.55Z"/></g><g id="wire"><path class="cls-3" d="M1086.75,185.35c.91.77,7.63,4.12,15,2.93s16.22-6,19.55-9.61c5.72-6.19,24.47-25.29,45.32-30,18.8-4.22,39.1,6.1,45.44,9.53a92.17,92.17,0,0,1,33.45,30.4,12.47,12.47,0,0,1,1.73,5.88c.26,2.23-5.86,7.7-9.61,3.63-4.23-4.59-8-8.76-12.74-13.53a88,88,0,0,0-7.15-6.57,83.57,83.57,0,0,0-9.34-7c-5.07-3-9.77-6-15.28-8a71.4,71.4,0,0,0-15.14-3c-11.63-.59-18.85,2.45-27.49,10.26-3.43,3.1-7.14,5.89-10.22,9.33-5,5.56-11.42,9.53-17.77,13.42a60.79,60.79,0,0,1-8.55,4.63c-7.1,2.91-15,3-22.68,2.66-2.56-.12-9.39-1.78-13.71-5.85-3.79-3.57-5.24-9.46-5.5-11.73a26,26,0,0,1,1.07-9.27c1.54-5.82,7.5-11.56,12.49-14.91-.32.21,7.69,8.49,8.06,8.8.77.62-4.92,3.44-7,7.33C1084.47,179.08,1085.79,184.54,1086.75,185.35Z"/></g></g></svg>