<svg id="Layer_1" data-name="Layer 1" xmlns="http://www.w3.org/2000/svg" xmlns:xlink="http://www.w3.org/1999/xlink" viewBox="0 0 116.67 116.67"><defs><style>.cls-1,.cls-2{fill:none;}.cls-2{clip-rule:evenodd;}.cls-3{clip-path:url(#clip-path);}.cls-4{clip-path:url(#clip-path-2);}.cls-5{fill:#55acee;}.cls-6{clip-path:url(#clip-path-3);}.cls-7{fill:#fff;}</style><clipPath id="clip-path" transform="translate(8.33 8.33)"><circle class="cls-1" cx="50" cy="50" r="50"/></clipPath><clipPath id="clip-path-2" transform="translate(8.33 8.33)"><rect class="cls-1" x="-766.67" y="-101.67" width="1333.33" height="1741.67"/></clipPath><clipPath id="clip-path-3" transform="translate(8.33 8.33)"><path class="cls-2" d="M48.5,40.64l.1,1.73-1.75-.21A28.44,28.44,0,0,1,30.21,34l-2.31-2.3-.59,1.69a10.19,10.19,0,0,0,2.17,10.45c1.4,1.48,1.08,1.69-1.33.81a4.12,4.12,0,0,0-1.64-.39c-.24.25.59,3.46,1.26,4.73a11.29,11.29,0,0,0,4.79,4.52l1.71.81-2,0c-2,0-2,0-1.82.78.7,2.3,3.46,4.73,6.54,5.79l2.17.74-1.89,1.13a19.69,19.69,0,0,1-9.37,2.61,10.36,10.36,0,0,0-2.87.28c0,.35,4.27,2.33,6.75,3.11a29.54,29.54,0,0,0,22.94-2.61,30.7,30.7,0,0,0,11.65-13.7,36.42,36.42,0,0,0,2.38-10.59c0-1.62.1-1.84,2.06-3.78a23.06,23.06,0,0,0,2.45-2.72c.35-.67.31-.67-1.47-.07-3,1.06-3.39.92-1.92-.67,1.08-1.13,2.38-3.18,2.38-3.78,0-.11-.52.07-1.12.39A19.51,19.51,0,0,1,68,32.45l-1.89.6-1.71-1.17a14.24,14.24,0,0,0-3-1.55,12,12,0,0,0-6.12.14A10.11,10.11,0,0,0,48.5,40.64Z"/></clipPath></defs><title>logo_twitter</title><g class="cls-3"><g class="cls-4"><rect class="cls-5" width="116.67" height="116.67"/></g></g><g class="cls-6"><g class="cls-4"><rect class="cls-7" x="25" y="30" width="65.07" height="56.67"/></g></g></svg>