<svg xmlns="http://www.w3.org/2000/svg" viewBox="0 0 1253.42 201.02"><defs><style>.cls-1,.cls-2{fill:#fff;}.cls-2{stroke:#d7ab80;stroke-miterlimit:10;}</style></defs><title>logo_dodge v2</title><g id="text"><path class="cls-1" d="M27.85,83.68v59.11a51.76,51.76,0,0,1-1.34,12.66,14.88,14.88,0,0,1-5.42,8.38,37,37,0,0,1-7.54,4.35,44.11,44.11,0,0,1-12.16,3.09l-1.39-9a39.11,39.11,0,0,0,9.39-2.58,13,13,0,0,0,5.17-3.85,11.71,11.71,0,0,0,2.14-5.54,59.15,59.15,0,0,0,.44-7.69v-59Z"/><path class="cls-1" d="M44.87,88.09a6.66,6.66,0,0,1,6.8-6.8,7.16,7.16,0,0,1,5.1,1.95,6.71,6.71,0,0,1,0,9.71,7.16,7.16,0,0,1-5.1,2,6.66,6.66,0,0,1-6.8-6.81Zm1.63,18L56.59,105v64.65H46.5Z"/><path class="cls-1" d="M74.86,117.71a84,84,0,0,0-.76-10.33l9.45-1.26,1.39,7.94a69.87,69.87,0,0,1,6.68-4.42,44.78,44.78,0,0,1,7.06-3.27,22,22,0,0,1,7.68-1.39q6.3,0,10,2.21t5.42,7.5A102.36,102.36,0,0,1,132.51,108a24.23,24.23,0,0,1,11.66-3,23.16,23.16,0,0,1,7.94,1.2,11.1,11.1,0,0,1,5.29,4,18.17,18.17,0,0,1,2.9,7.31,60.66,60.66,0,0,1,.88,11.34v40.83H151.1v-39.7c0-2.52,0-4.76-.12-6.74a17,17,0,0,0-.89-5,6.28,6.28,0,0,0-2.45-3.21,8.73,8.73,0,0,0-4.86-1.14,18.21,18.21,0,0,0-5.48.82A31.15,31.15,0,0,0,132,117a67.73,67.73,0,0,0-8.57,6.18v46.5H113.3v-39.7c0-2.52,0-4.76-.13-6.74a17.33,17.33,0,0,0-.88-5,6.35,6.35,0,0,0-2.46-3.21A8.67,8.67,0,0,0,105,113.8a18.66,18.66,0,0,0-6.81,1.39,45.5,45.5,0,0,0-6.68,3.28q-3.15,1.89-6.55,4.41v46.75H74.86Z"/><path class="cls-1" d="M209.83,83.68h27.6a63.15,63.15,0,0,1,18.46,2.52A37.47,37.47,0,0,1,270.07,94a35,35,0,0,1,9.13,13.36,51.09,51.09,0,0,1,3.22,19,48,48,0,0,1-3.53,19.21,37.82,37.82,0,0,1-9.58,13.49,38.75,38.75,0,0,1-14.24,7.94,58.41,58.41,0,0,1-17.64,2.58h-27.6Zm10.71,76.25h17a46.43,46.43,0,0,0,13-1.77,27.74,27.74,0,0,0,10.68-5.73,26.93,26.93,0,0,0,7.23-10.4,41.1,41.1,0,0,0,2.64-15.62,41.44,41.44,0,0,0-2.38-14.81A26,26,0,0,0,251.4,95.34a46.34,46.34,0,0,0-13.89-2h-17Z"/><path class="cls-1" d="M294.39,138.13q0-9.58,3-15.95A29.21,29.21,0,0,1,305.1,112a28.08,28.08,0,0,1,10-5.42A36,36,0,0,1,325.26,105a38.35,38.35,0,0,1,9.9,1.45,26.35,26.35,0,0,1,9.89,5.17,29,29,0,0,1,7.56,10q3,6.24,3,15.82,0,10-3.09,16.51a29.54,29.54,0,0,1-7.75,10.4,28.13,28.13,0,0,1-10.08,5.41,33.69,33.69,0,0,1-20.17.07,26.56,26.56,0,0,1-9.76-5.23,28.18,28.18,0,0,1-7.44-10.15Q294.4,148,294.39,138.13Zm10.71.12q0,12.23,5.48,18.21t14.81,6q9.19,0,14.37-5.93t5.16-17.76q0-12.6-5.48-18.78t-14.93-6.18q-9.45,0-14.43,6.12T305.1,138.25Z"/><path class="cls-1" d="M410,164.59a41.49,41.49,0,0,1-5.61,3.34,42.2,42.2,0,0,1-5.92,2.33,20.85,20.85,0,0,1-6.24,1q-11.85,0-18.59-8.38t-6.74-24.51q0-9.58,3.09-16a29.83,29.83,0,0,1,7.75-10.27,29.06,29.06,0,0,1,10-5.48A34.09,34.09,0,0,1,397.6,105a38.76,38.76,0,0,1,4.79.32,65.54,65.54,0,0,1,7.44,1.57V75.24l10.08-1.13v84.05q0,1.77.06,3.72c0,1.3.13,2.58.25,3.84s.27,2.57.44,3.91l-9.7,1Zm-.12-48.9a53,53,0,0,0-7.06-1.57,41.72,41.72,0,0,0-5.17-.32,20.08,20.08,0,0,0-9.07,1.89,17.23,17.23,0,0,0-6.24,5.23,22.22,22.22,0,0,0-3.59,7.69,36.42,36.42,0,0,0-1.14,9.26,42,42,0,0,0,.95,8.83,27.26,27.26,0,0,0,3,7.93,18,18,0,0,0,4.91,5.68,11.36,11.36,0,0,0,6.94,2.14,17.81,17.81,0,0,0,5.73-1,38.57,38.57,0,0,0,5.48-2.33,43.78,43.78,0,0,0,5.3-3.34Z"/><path class="cls-1" d="M487.83,175.68a40.67,40.67,0,0,1-1,9.07,18.92,18.92,0,0,1-3.84,7.88,19.57,19.57,0,0,1-7.94,5.55q-5.1,2.07-13.42,2.07a87.36,87.36,0,0,1-9.2-.63,59,59,0,0,1-7.44-1.47,45.78,45.78,0,0,1-6.42-2.24L441.2,187a55.09,55.09,0,0,0,10,3.28,42.33,42.33,0,0,0,9.14,1.13,30.08,30.08,0,0,0,7.68-.87,12.67,12.67,0,0,0,5.49-2.95,12.41,12.41,0,0,0,3.27-5.46,28,28,0,0,0,1.07-8.4v-9.16a52.66,52.66,0,0,1-5.48,3.21,37.89,37.89,0,0,1-6.05,2.46,20.83,20.83,0,0,1-6.23,1q-11.73,0-18.53-8.25t-6.8-24.64q0-9.45,3-15.82a30.06,30.06,0,0,1,7.49-10.27,28.27,28.27,0,0,1,10-5.61,34.62,34.62,0,0,1,10.33-1.7,60.54,60.54,0,0,1,11.79,1.07q5.35,1.08,10.52,1.7Zm-26.59-13.23a17.24,17.24,0,0,0,5.67-1,44.79,44.79,0,0,0,5.61-2.39,43.48,43.48,0,0,0,5.35-3.28v-40.2l-3.52-.88-4-.57a34.8,34.8,0,0,0-4.79-.32,20.11,20.11,0,0,0-9.07,1.89,17.47,17.47,0,0,0-6.24,5.17,21.73,21.73,0,0,0-3.59,7.69,37.6,37.6,0,0,0-1.13,9.32,42,42,0,0,0,.94,8.83,27.55,27.55,0,0,0,3,7.93,18,18,0,0,0,4.92,5.68A11.31,11.31,0,0,0,461.24,162.45Z"/><path class="cls-1" d="M552.86,168.12c-1.94.59-3.93,1.09-6,1.51s-4.33.8-6.8,1.14a58.8,58.8,0,0,1-7.75.5,37.78,37.78,0,0,1-11.72-1.76,24.13,24.13,0,0,1-9.46-5.68,26.89,26.89,0,0,1-6.36-10.14,43.84,43.84,0,0,1-2.33-15.31A42.19,42.19,0,0,1,504.72,124,29.88,29.88,0,0,1,511,113.49a25.71,25.71,0,0,1,9.32-6.37A31.28,31.28,0,0,1,531.94,105a22.6,22.6,0,0,1,10.71,2.4,21.55,21.55,0,0,1,7.5,6.49,28.84,28.84,0,0,1,4.41,9.57A45.27,45.27,0,0,1,556,135l-1.89,5.54H513.41a31.17,31.17,0,0,0,1,7.81,19,19,0,0,0,3.47,7.06,18.17,18.17,0,0,0,6.42,5.1,22.25,22.25,0,0,0,9.9,2,50.82,50.82,0,0,0,6.93-.44c2.1-.3,3.92-.63,5.48-1a39.84,39.84,0,0,0,4.35-1.32Zm-7.31-35.67c0-.58-.13-1.89-.38-3.9a23.76,23.76,0,0,0-1.76-6.3,16.41,16.41,0,0,0-4.29-5.86,11.13,11.13,0,0,0-7.69-2.59,15.72,15.72,0,0,0-8.69,2.21,18.34,18.34,0,0,0-5.42,5.23,19,19,0,0,0-2.77,6.17,22.51,22.51,0,0,0-.76,5Z"/><path class="cls-1" d="M659.09,95.78c-2.1-.67-4.32-1.28-6.68-1.83s-4.93-1-7.75-1.38a66.28,66.28,0,0,0-8.88-.57,23.94,23.94,0,0,0-12.86,3.28,27.52,27.52,0,0,0-8.63,8.38,36.12,36.12,0,0,0-4.85,11.4,53.29,53.29,0,0,0-1.51,12.48,43.1,43.1,0,0,0,2.2,14.18,33.16,33.16,0,0,0,6,10.84,26.56,26.56,0,0,0,9,6.86,25,25,0,0,0,10.78,2.4,76.07,76.07,0,0,0,9.7-.57c2.94-.38,5.46-.77,7.56-1.2a51.64,51.64,0,0,0,6.55-1.76l2.15,9a69.2,69.2,0,0,1-7.57,2q-3.52.76-8.19,1.39a76.48,76.48,0,0,1-10.2.63A43.2,43.2,0,0,1,618.45,168,33.92,33.92,0,0,1,606,158.86,39.56,39.56,0,0,1,598.48,145,57.94,57.94,0,0,1,596,127.41a56.75,56.75,0,0,1,3-19.34,40.37,40.37,0,0,1,8.32-14,34.33,34.33,0,0,1,12.6-8.57,43.09,43.09,0,0,1,16-2.9,80.71,80.71,0,0,1,9.89.57,83.74,83.74,0,0,1,8.44,1.45c2.56.58,4.94,1.21,7.12,1.89Z"/><path class="cls-1" d="M668.67,138.13q0-9.58,3-15.95a29.07,29.07,0,0,1,7.68-10.2,28.08,28.08,0,0,1,10-5.42A36,36,0,0,1,699.55,105a38.34,38.34,0,0,1,9.89,1.45,26.35,26.35,0,0,1,9.89,5.17,28.76,28.76,0,0,1,7.56,10q3,6.24,3,15.82,0,10-3.09,16.51a29.54,29.54,0,0,1-7.75,10.4A28.13,28.13,0,0,1,709,169.69a33.66,33.66,0,0,1-20.16.07,26.6,26.6,0,0,1-9.77-5.23,28.41,28.41,0,0,1-7.44-10.15Q668.68,148,668.67,138.13Zm10.71.12q0,12.23,5.49,18.21t14.8,6q9.21,0,14.37-5.93t5.17-17.76q0-12.6-5.49-18.78t-14.93-6.18q-9.45,0-14.43,6.12T679.38,138.25Z"/><path class="cls-1" d="M744.66,117.71a85.8,85.8,0,0,0-.75-10.33l9.45-1.26,1.38,7.94a71.14,71.14,0,0,1,6.68-4.42,45.2,45.2,0,0,1,7.06-3.27,22,22,0,0,1,7.69-1.39q6.3,0,10,2.21t5.42,7.5A103.54,103.54,0,0,1,802.32,108,24.17,24.17,0,0,1,814,105a23.24,23.24,0,0,1,7.94,1.2,11.15,11.15,0,0,1,5.29,4,18.16,18.16,0,0,1,2.89,7.31A60.56,60.56,0,0,1,831,128.8v40.83H820.91v-39.7c0-2.52,0-4.76-.13-6.74a17,17,0,0,0-.88-5,6.35,6.35,0,0,0-2.46-3.21,8.67,8.67,0,0,0-4.85-1.14,18.16,18.16,0,0,0-5.48.82,31.23,31.23,0,0,0-5.36,2.33,67.73,67.73,0,0,0-8.57,6.18v46.5H783.1v-39.7c0-2.52,0-4.76-.13-6.74a17,17,0,0,0-.88-5,6.24,6.24,0,0,0-2.46-3.21,8.67,8.67,0,0,0-4.85-1.14,18.65,18.65,0,0,0-6.8,1.39,45,45,0,0,0-6.68,3.28q-3.15,1.89-6.56,4.41v46.75H744.66Z"/><path class="cls-1" d="M895.64,168.12c-1.94.59-3.93,1.09-6,1.51s-4.33.8-6.8,1.14a58.8,58.8,0,0,1-7.75.5,37.78,37.78,0,0,1-11.72-1.76,24.13,24.13,0,0,1-9.46-5.68,26.89,26.89,0,0,1-6.36-10.14,43.84,43.84,0,0,1-2.33-15.31A42,42,0,0,1,847.5,124a30,30,0,0,1,6.23-10.46,25.84,25.84,0,0,1,9.33-6.37A31.28,31.28,0,0,1,874.72,105a22.6,22.6,0,0,1,10.71,2.4,21.55,21.55,0,0,1,7.5,6.49,28.84,28.84,0,0,1,4.41,9.57A45.27,45.27,0,0,1,898.79,135l-1.89,5.54H856.19a31.17,31.17,0,0,0,1,7.81,19,19,0,0,0,3.47,7.06,18.08,18.08,0,0,0,6.42,5.1,22.25,22.25,0,0,0,9.9,2,50.82,50.82,0,0,0,6.93-.44c2.1-.3,3.92-.63,5.48-1a39.84,39.84,0,0,0,4.35-1.32Zm-7.31-35.67c0-.58-.13-1.89-.38-3.9a23.43,23.43,0,0,0-1.77-6.3,16.26,16.26,0,0,0-4.28-5.86,11.13,11.13,0,0,0-7.69-2.59,15.69,15.69,0,0,0-8.69,2.21,18.34,18.34,0,0,0-5.42,5.23,19,19,0,0,0-2.77,6.17,22.51,22.51,0,0,0-.76,5Z"/><path class="cls-1" d="M952.22,164.59a41.49,41.49,0,0,1-5.61,3.34,42.2,42.2,0,0,1-5.92,2.33,20.85,20.85,0,0,1-6.24,1q-11.85,0-18.59-8.38t-6.74-24.51q0-9.58,3.09-16A29.83,29.83,0,0,1,920,112.1a29.06,29.06,0,0,1,10-5.48,34.09,34.09,0,0,1,9.89-1.64,38.76,38.76,0,0,1,4.79.32,65.54,65.54,0,0,1,7.44,1.57V75.24l10.08-1.13v84.05q0,1.77.06,3.72c0,1.3.13,2.58.25,3.84s.27,2.57.44,3.91l-9.7,1Zm-.12-48.9a53,53,0,0,0-7.06-1.57,41.6,41.6,0,0,0-5.17-.32,20.08,20.08,0,0,0-9.07,1.89,17.23,17.23,0,0,0-6.24,5.23,22.22,22.22,0,0,0-3.59,7.69,36.42,36.42,0,0,0-1.14,9.26,42,42,0,0,0,.95,8.83,27.55,27.55,0,0,0,3,7.93,17.9,17.9,0,0,0,4.92,5.68,11.31,11.31,0,0,0,6.93,2.14,17.81,17.81,0,0,0,5.73-1,38.57,38.57,0,0,0,5.48-2.33,43.78,43.78,0,0,0,5.3-3.34Z"/><path class="cls-1" d="M972.26,106.24H983l11.85,28.61q1.75,4.16,3.21,8.32c1,2.77,1.83,5.25,2.58,7.43.93,2.61,1.72,5.13,2.4,7.56h.12q1.14-3.65,2.52-7.56,1.14-3.27,2.65-7.43t3.15-8.32l11-28.61H1033l-30,75.62a28.09,28.09,0,0,1-4.6,8.06,46.84,46.84,0,0,1-5.49,5.67,41.12,41.12,0,0,1-6.55,4.54l-4.91-8.7a23.31,23.31,0,0,0,4.91-3.15,29,29,0,0,0,4-4.09,20.3,20.3,0,0,0,3.27-5.86L997.59,168Z"/></g><g id="Mic"><g id="mic_head" data-name="mic head"><path class="cls-2" d="M1248.37,68.45s-30.11-7.77-43.61-24.19c-18.69-22.72-19.06-39.58-19.06-39.58s12.71-5.12,24.56-4a46.14,46.14,0,0,1,28.21,13.93c5.79,6,12.06,15,13.56,23.82C1255.33,57.82,1248.37,68.45,1248.37,68.45Z"/><path class="cls-2" d="M1237,78.71c-9.12-2-28.15-10.21-40.31-23.82-14.37-16.08-21.26-37.75-21.26-37.75-4.92,5.08-5.47,11.17-5.86,17.59-1.47,24.16,22.75,48.8,45.81,49.11C1222.5,83.94,1232,85.38,1237,78.71Z"/></g><g id="handle"><path class="cls-2" d="M1161.15,58.55S1169.9,73.82,1174,78c4.29,4.37,20.16,13.92,20.16,13.92s-24.66,20.18-48,40.32c-23,19.87-44.72,39.73-52.4,35.18-6.82-4-8.07-9.53-8.07-9.53-.88-3.9.19-7.67,1.47-9.16,17.59-20.53,31-38.15,43.61-52.78C1150.91,72.56,1161.15,58.55,1161.15,58.55Z"/></g><g id="wire"><path class="cls-2" d="M1086.75,185.35c.92.77,7.64,4.12,15,2.94s16.22-6,19.55-9.61c5.72-6.2,24.47-25.29,45.32-30,18.8-4.23,39.1,6.09,45.44,9.52a92.2,92.2,0,0,1,33.45,30.4,12.51,12.51,0,0,1,1.73,5.89c.26,2.23-5.86,7.69-9.61,3.63-4.24-4.59-8-8.76-12.75-13.53a88.61,88.61,0,0,0-7.14-6.57,83.3,83.3,0,0,0-9.35-7c-5.07-3-9.77-6-15.27-8a70.94,70.94,0,0,0-15.14-3c-11.63-.59-18.86,2.44-27.49,10.26-3.43,3.1-7.14,5.88-10.22,9.33-5,5.56-11.42,9.53-17.77,13.42a61.4,61.4,0,0,1-8.55,4.63c-7.1,2.91-15,3-22.68,2.66-2.55-.13-9.39-1.78-13.71-5.85-3.78-3.58-5.24-9.46-5.49-11.73a25.91,25.91,0,0,1,1.06-9.28c1.54-5.81,7.5-11.55,12.49-14.91-.31.21,7.69,8.49,8.07,8.8.76.62-4.92,3.44-7,7.33C1084.47,179.08,1085.79,184.54,1086.75,185.35Z"/></g></g></svg>